[Header]
FileType HTR
DataType HTRS
FileVersion 1
NumSegments 22
NumFrames 7
DataFrameRate 24
EulerRotationOrder ZYX
CalibrationUnits mm
RotationUnits Degrees
GlobalAxisofGravity Y
BoneLengthAxis Y
ScaleFactor 1.0
[SegmentNames&Hierarchy]
reference	GLOBAL
Hips	reference
Spine	Hips
Spine1	Spine
Neck	Spine1
Head	Neck
LeftShoulder	Spine1
LeftArm	LeftShoulder
LeftForeArm	LeftArm
LeftHand	LeftForeArm
RightShoulder	Spine1
RightArm	RightShoulder
RightForeArm	RightArm
RightHand	RightForeArm
LeftUpLeg	Hips
LeftLeg	LeftUpLeg
LeftFoot	LeftLeg
LeftToeBase	LeftFoot
RightUpLeg	Hips
RightLeg	RightUpLeg
RightFoot	RightLeg
RightToeBase	RightFoot
[BasePosition]
reference	0	0	0	0	0	0	1
Hips	0	0	0	0	0	0	1
Spine	0	0	0	0	-0	90	1
Spine1	0	0	0	0	0	0	1
Neck	0	0	0	-7.352327771	-7.352327771	90	1
Head	0	0	0	0	-0	90	1
LeftShoulder	0	0	0	0	0	0	1
LeftArm	0	0	0	0	0	0	1
LeftForeArm	0	0	0	0	0	0	1
LeftHand	0	0	0	0	0	0	1
RightShoulder	0	0	0	0	-0	180	1
RightArm	0	0	0	0	-0	180	1
RightForeArm	0	0	0	0	-0	180	1
RightHand	0	0	0	0	-0	180	1
LeftUpLeg	0	0	0	0	-0	-90	1
LeftLeg	0	0	0	0	-0	-90	1
LeftFoot	0	0	0	66.57146043	-66.57146043	-90	1
LeftToeBase	0	0	0	0	-90	0	1
RightUpLeg	0	0	0	0	-0	-90	1
RightLeg	0	0	0	0	-0	-90	1
RightFoot	0	0	0	66.57146043	-66.57146043	-90	1
RightToeBase	0	0	0	0	-90	0	1
[reference]
20	0	0	0	0	-0	0	1.0
21	0	0	0	0	-0	0	1.0
22	0	0	0	0	-0	0	1.0
23	0	0	0	0	-0	0	1.0
24	0	0	0	0	-0	0	1.0
25	0	0	0	0	-0	0	1.0
26	0	0	0	0	-0	0	1.0
[Hips]
20	9.149264336	8.512742043	1.747569799	190.7236481	-93.74880981	-189.5397186	1.0
21	9.064710617	8.600178719	1.756763339	188.0694122	-95.87265015	-183.7760315	1.0
22	8.985085487	8.639661789	1.765815973	199.0468445	-96.69667053	-194.4184113	1.0
23	8.833075523	8.654519081	1.775170565	201.8043976	-97.36314392	-197.1416168	1.0
24	8.676539421	8.642781258	1.762266397	200.6837311	-97.72189331	-195.7142944	1.0
25	8.508880615	8.630648613	1.733356118	193.9379272	-97.56783295	-188.7879028	1.0
26	8.323534966	8.618960381	1.703602314	190.9064941	-96.94908905	-185.4505005	1.0
[Spine]
20	0	0.7457100153	0	-8.764252663	4.902918339	-91.77339935	1.0
21	0	0.7457100153	0	-10.15209198	4.958545685	-91.50473785	1.0
22	0	0.7457100153	0	-9.834050179	5.717858315	-90.3914032	1.0
23	0	0.7457100153	0	-9.391904831	5.937847614	-89.84046936	1.0
24	0	0.7457100153	0	-9.316461563	5.6602211	-90.09486389	1.0
25	0	0.7457100153	0	-9.49862957	4.968799591	-91.03966522	1.0
26	0	0.7457100153	0	-9.838150024	4.582947254	-90.84544373	1.0
[Spine1]
20	0	2.140589952	0	14.35210228	1.500505686	1.874375582	1.0
21	0	2.140589952	0	12.70190716	1.541169405	1.411952019	1.0
22	0	2.140589952	0	11.26174736	1.767213821	1.545020342	1.0
23	0	2.140589952	0	9.727891922	1.826373935	1.318170309	1.0
24	0	2.140589952	0	9.278864861	1.790429354	1.135080695	1.0
25	0	2.140589952	0	9.683281898	1.617181063	0.8124853969	1.0
26	0	2.140589952	0	10.11406994	1.531458616	0.1007249504	1.0
[Neck]
20	0	2.32246995	0	-17.62989044	-0.5098758936	-89.35718536	1.0
21	0	2.32246995	0	-17.29668617	-1.265827894	-88.91830444	1.0
22	0	2.32246995	0	-16.94215202	-1.562568307	-88.72914886	1.0
23	0	2.32246995	0	-16.5802269	-1.467373848	-88.18727112	1.0
24	0	2.32246995	0	-16.48673058	-1.143991232	-87.75022888	1.0
25	0	2.32246995	0	-16.76195908	-0.7510442734	-87.18596649	1.0
26	0	2.32246995	0	-17.81485367	-0.4425696135	-87.71803284	1.0
[Head]
20	0	1.409579992	0.1818799973	-2.631951094	-8.127994537	-91.63492584	1.0
21	0	1.409579992	0.1818799973	-2.426487923	-8.972396851	-91.48622894	1.0
22	0	1.409579992	0.1818799973	-1.397026658	-9.314397812	-91.36672211	1.0
23	0	1.409579992	0.1818799973	-0.3518564701	-9.2504673	-91.44750977	1.0
24	0	1.409579992	0.1818799973	-0.1408923268	-8.915436745	-91.70076752	1.0
25	0	1.409579992	0.1818799973	-1.016081572	-8.608674049	-91.2554245	1.0
26	0	1.409579992	0.1818799973	-0.09884515405	-8.243099213	-91.52500916	1.0
[LeftShoulder]
20	0.3668199778	1.946700096	-0.02662999928	-16.48739433	-13.71677971	-1.916266441	1.0
21	0.3668199778	1.946700096	-0.02662999928	-16.47796631	-13.63513088	-0.3641502261	1.0
22	0.3668199778	1.946700096	-0.02662999928	-15.53705502	-13.41532421	0.8020703793	1.0
23	0.3668199778	1.946700096	-0.02662999928	-13.77563858	-13.24846745	1.797526717	1.0
24	0.3668199778	1.946700096	-0.02662999928	-12.19020748	-13.79141331	2.312041759	1.0
25	0.3668199778	1.946700096	-0.02662999928	-12.30351067	-13.61934853	3.629123211	1.0
26	0.3668199778	1.946700096	-0.02662999928	-12.20932579	-13.16065788	4.337116718	1.0
[LeftArm]
20	1.140689969	0	0	33.80144501	18.9577179	-72.15150452	1.0
21	1.140689969	0	0	30.99573517	20.78141594	-72.45485687	1.0
22	1.140689969	0	0	27.54596138	22.15944672	-72.2361908	1.0
23	1.140689969	0	0	23.87888145	23.44763374	-71.67385101	1.0
24	1.140689969	0	0	20.73867035	24.93941498	-69.97084045	1.0
25	1.140689969	0	0	17.86767006	27.04806328	-68.70818329	1.0
26	1.140689969	0	0	14.27097702	28.39495468	-67.15500641	1.0
[LeftForeArm]
20	2.749800205	0	0	-9.600488663	-12.63339043	-2.051276207	1.0
21	2.749800205	0	0	-8.842945099	-11.62337399	-3.145920992	1.0
22	2.749800205	0	0	-8.36231041	-9.991660118	-4.552549362	1.0
23	2.749800205	0	0	-8.690596581	-8.980172157	-5.246525764	1.0
24	2.749800205	0	0	-7.496397018	-8.391062737	-6.017052174	1.0
25	2.749800205	0	0	-7.118674278	-7.555052757	-6.556651115	1.0
26	2.749800205	0	0	-6.665960312	-6.31288147	-7.033093452	1.0
[LeftHand]
20	2.295179844	0	0	-9.770474434	-5.408277988	-1.213516831	1.0
21	2.295179844	0	0	-9.015903473	-5.265925407	-3.191381216	1.0
22	2.295179844	0	0	-8.543196678	-4.323367119	-5.734945774	1.0
23	2.295179844	0	0	-8.912214279	-2.19555378	-8.776828766	1.0
24	2.295179844	0	0	-7.807974815	-1.725654125	-8.63068676	1.0
25	2.295179844	0	0	-7.412352085	-1.719370604	-9.290539742	1.0
26	2.295179844	0	0	-6.938295841	-1.657665014	-7.978608608	1.0
[RightShoulder]
20	-0.3601199985	1.946700096	-0.02662999928	-7.049615383	5.081310749	176.9794312	1.0
21	-0.3601199985	1.946700096	-0.02662999928	-7.630168438	5.047375679	176.2665253	1.0
22	-0.3601199985	1.946700096	-0.02662999928	-7.040093422	4.936090946	175.6274719	1.0
23	-0.3601199985	1.946700096	-0.02662999928	-7.778122425	4.378487587	174.4320374	1.0
24	-0.3601199985	1.946700096	-0.02662999928	-8.76461792	3.61156702	173.2606354	1.0
25	-0.3601199985	1.946700096	-0.02662999928	-9.504781723	3.136239767	172.7473602	1.0
26	-0.3601199985	1.946700096	-0.02662999928	-9.176539421	2.70699954	171.8520966	1.0
[RightArm]
20	-1.140689969	0	0	62.17706299	2.721238375	-99.72220612	1.0
21	-1.140689969	0	0	64.10469055	4.541534901	-99.84814453	1.0
22	-1.140689969	0	0	65.46678925	7.40829277	-100.5162811	1.0
23	-1.140689969	0	0	67.54657745	9.315660477	-100.2519836	1.0
24	-1.140689969	0	0	68.73048401	11.73076344	-100.0671082	1.0
25	-1.140689969	0	0	69.51973724	14.8323555	-100.0158768	1.0
26	-1.140689969	0	0	70.31352234	18.16296768	-99.03255463	1.0
[RightForeArm]
20	-2.749800205	0	0	0.9751477242	11.79119587	179.059845	1.0
21	-2.749800205	0	0	3.963008165	12.68195534	180.7470093	1.0
22	-2.749800205	0	0	6.600184917	14.54704762	181.9465942	1.0
23	-2.749800205	0	0	7.991355896	16.86014175	182.2173462	1.0
24	-2.749800205	0	0	9.491098404	19.46349907	182.6297302	1.0
25	-2.749800205	0	0	10.69020939	21.94075012	182.6337738	1.0
26	-2.749800205	0	0	11.40706635	23.63959503	181.5471954	1.0
[RightHand]
20	-2.295179844	0	0	0.8028537035	6.79626894	175.4668579	1.0
21	-2.295179844	0	0	3.565232992	7.136149406	174.9546661	1.0
22	-2.295179844	0	0	6.024490356	7.93671751	175.2649078	1.0
23	-2.295179844	0	0	7.321071625	8.863703728	175.6162415	1.0
24	-2.295179844	0	0	8.586554527	9.781895638	174.7122192	1.0
25	-2.295179844	0	0	9.500535011	10.29600716	172.4787598	1.0
26	-2.295179844	0	0	10.163414	10.46014023	169.9716797	1.0
[LeftUpLeg]
20	0.9094099998	0	0	0.1915344596	-1.924958587	88.0292511	1.0
21	0.9094099998	0	0	-0.7628665566	-3.395556688	87.94621277	1.0
22	0.9094099998	0	0	1.940006971	-2.729585171	89.52891541	1.0
23	0.9094099998	0	0	5.003223419	-4.031846046	89.86575317	1.0
24	0.9094099998	0	0	6.766791344	-6.240408421	89.98950195	1.0
25	0.9094099998	0	0	7.506409645	-5.364252567	89.51638794	1.0
26	0.9094099998	0	0	7.554424763	-2.134745598	89.49898529	1.0
[LeftLeg]
20	0	-4.498080254	0	17.47452927	-12.05472469	83.80970001	1.0
21	0	-4.498080254	0	13.84422779	-10.08786869	85.68357849	1.0
22	0	-4.498080254	0	8.65290451	-11.30224705	86.43952942	1.0
23	0	-4.498080254	0	3.599683762	-9.214944839	87.99666595	1.0
24	0	-4.498080254	0	1.557819247	-6.994988918	87.96786499	1.0
25	0	-4.498080254	0	1.978318334	-8.696683884	87.76687622	1.0
26	0	-4.498080254	0	4.729530811	-9.595180511	87.21499634	1.0
[LeftFoot]
20	0	-3.729400158	0	-95.60731506	112.4539032	-40.18086624	1.0
21	0	-3.729400158	0	-96.16184998	112.8373032	-45.85134888	1.0
22	0	-3.729400158	0	-93.88478088	112.5572586	-45.99475861	1.0
23	0	-3.729400158	0	-94.22110748	112.6241989	-49.32642365	1.0
24	0	-3.729400158	0	-95.58833313	112.3334503	-51.40641022	1.0
25	0	-3.729400158	0	-93.10868073	106.7327194	-46.62181091	1.0
26	0	-3.729400158	0	-93.45121765	106.0924454	-45.44155502	1.0
[LeftToeBase]
20	0	-0.5911099911	1.364109993	0	0	0	1.0
21	0	-0.5911099911	1.364109993	0	0	0	1.0
22	0	-0.5911099911	1.364109993	0	0	0	1.0
23	0	-0.5911099911	1.364109993	0	0	0	1.0
24	0	-0.5911099911	1.364109993	0	0	0	1.0
25	0	-0.5911099911	1.364109993	0	0	0	1.0
26	0	-0.5911099911	1.364109993	0	0	0	1.0
[RightUpLeg]
20	-0.9094099998	0	0	-24.25223923	-12.35124302	96.46221924	1.0
21	-0.9094099998	0	0	-26.90175629	-12.04360104	96.17267609	1.0
22	-0.9094099998	0	0	-24.83859062	-9.318821907	96.14788055	1.0
23	-0.9094099998	0	0	-21.52651215	-7.110586166	95.39816284	1.0
24	-0.9094099998	0	0	-18.79886818	-4.739759922	94.77326965	1.0
25	-0.9094099998	0	0	-17.5376358	-2.223267317	93.24782562	1.0
26	-0.9094099998	0	0	-18.38285828	-2.920426846	93.2386322	1.0
[RightLeg]
20	0	-4.498080254	0	50.0838623	-3.806284904	72.1182785	1.0
21	0	-4.498080254	0	43.61754227	-4.659047127	78.1913147	1.0
22	0	-4.498080254	0	32.18925476	-7.584321022	82.34405518	1.0
23	0	-4.498080254	0	18.05125809	-9.535647392	86.11282349	1.0
24	0	-4.498080254	0	5.921554565	-10.77805328	87.52184296	1.0
25	0	-4.498080254	0	0.8348814845	-12.0527277	87.87457275	1.0
26	0	-4.498080254	0	4.597725391	-10.70226097	87.60796356	1.0
[RightFoot]
20	0	-3.729400158	0	51.26332855	66.33267975	87.93122864	1.0
21	0	-3.729400158	0	49.11926651	66.00960541	85.21566772	1.0
22	0	-3.729400158	0	50.41590881	66.28121948	86.65137482	1.0
23	0	-3.729400158	0	55.47692108	66.93786621	89.70976257	1.0
24	0	-3.729400158	0	62.04932785	67.51734924	95.82421875	1.0
25	0	-3.729400158	0	67.71182251	68.30469513	100.4942627	1.0
26	0	-3.729400158	0	59.23347473	70.95179749	92.06809998	1.0
[RightToeBase]
20	0	-0.5911099911	1.364109993	0	0	0	1.0
21	0	-0.5911099911	1.364109993	0	0	0	1.0
22	0	-0.5911099911	1.364109993	0	0	0	1.0
23	0	-0.5911099911	1.364109993	0	0	0	1.0
24	0	-0.5911099911	1.364109993	0	0	0	1.0
25	0	-0.5911099911	1.364109993	0	0	0	1.0
26	0	-0.5911099911	1.364109993	0	0	0	1.0
[EndOfFile]
